<svg width="153" height="153" viewBox="0 0 153 153" fill="none" xmlns="http://www.w3.org/2000/svg">
<g clip-path="url(#clip0_1_2)">
<circle cx="76.5" cy="76.5" r="76.5" fill="white"/>
<path d="M55.1818 42.1818H63.6364V92.0909C63.6364 96.5455 62.8182 100.33 61.1818 103.443C59.5455 106.557 57.2386 108.92 54.2614 110.534C51.2841 112.148 47.7727 112.955 43.7273 112.955C39.9091 112.955 36.5114 112.261 33.5341 110.875C30.5568 109.466 28.2159 107.466 26.5114 104.875C24.8068 102.284 23.9545 99.2045 23.9545 95.6364H32.2727C32.2727 97.6136 32.7614 99.3409 33.7386 100.818C34.7386 102.273 36.1023 103.409 37.8295 104.227C39.5568 105.045 41.5227 105.455 43.7273 105.455C46.1591 105.455 48.2273 104.943 49.9318 103.92C51.6364 102.898 52.9318 101.398 53.8182 99.4205C54.7273 97.4205 55.1818 94.9773 55.1818 92.0909V42.1818ZM118.761 59.6364C118.352 56.1818 116.693 53.5 113.784 51.5909C110.875 49.6818 107.307 48.7273 103.08 48.7273C99.9886 48.7273 97.2841 49.2273 94.9659 50.2273C92.6705 51.2273 90.875 52.6023 89.5795 54.3523C88.3068 56.1023 87.6705 58.0909 87.6705 60.3182C87.6705 62.1818 88.1136 63.7841 89 65.125C89.9091 66.4432 91.0682 67.5455 92.4773 68.4318C93.8864 69.2955 95.3636 70.0114 96.9091 70.5795C98.4545 71.125 99.875 71.5682 101.17 71.9091L108.261 73.8182C110.08 74.2955 112.102 74.9545 114.33 75.7955C116.58 76.6364 118.727 77.7841 120.773 79.2386C122.841 80.6705 124.545 82.5114 125.886 84.7614C127.227 87.0114 127.898 89.7727 127.898 93.0455C127.898 96.8182 126.909 100.227 124.932 103.273C122.977 106.318 120.114 108.739 116.341 110.534C112.591 112.33 108.034 113.227 102.67 113.227C97.6705 113.227 93.3409 112.42 89.6818 110.807C86.0455 109.193 83.1818 106.943 81.0909 104.057C79.0227 101.17 77.8523 97.8182 77.5795 94H86.3068C86.5341 96.6364 87.4205 98.8182 88.9659 100.545C90.5341 102.25 92.5114 103.523 94.8977 104.364C97.3068 105.182 99.8977 105.591 102.67 105.591C105.898 105.591 108.795 105.068 111.364 104.023C113.932 102.955 115.966 101.477 117.466 99.5909C118.966 97.6818 119.716 95.4545 119.716 92.9091C119.716 90.5909 119.068 88.7045 117.773 87.25C116.477 85.7955 114.773 84.6136 112.659 83.7045C110.545 82.7955 108.261 82 105.807 81.3182L97.2159 78.8636C91.7614 77.2955 87.4432 75.0568 84.2614 72.1477C81.0795 69.2386 79.4886 65.4318 79.4886 60.7273C79.4886 56.8182 80.5455 53.4091 82.6591 50.5C84.7955 47.5682 87.6591 45.2955 91.25 43.6818C94.8636 42.0455 98.8977 41.2273 103.352 41.2273C107.852 41.2273 111.852 42.0341 115.352 43.6477C118.852 45.2386 121.625 47.4205 123.67 50.1932C125.739 52.9659 126.83 56.1136 126.943 59.6364H118.761Z" fill="black"/>
</g>
<defs>
<clipPath id="clip0_1_2">
<rect width="153" height="153" fill="white"/>
</clipPath>
</defs>
</svg>
